# xmcd
#
# Track frame offsets:
#	150
#	15982
#	37345
#	51242
#	73295
#	88320
#	102667
#	127125
#	140895
#	156012
#	182002
#	202545
#	229655
#	242850
#	254837
#
# Disc length: 3710
#
# Revision: 2
# Processed by: cddbd v1.5.1PL0 Copyright (c) Steve Scherf et al.
# Submitted via: CDex 1.50beta9
# Normalized: r1:DSETVAR1,TDELIM( - )
#
DISCID=e50e7c0f
DTITLE=Various Artist - Spirit of Jazz Disc 1 - From Classics
DYEAR=1900
DGENRE=Jazz
TTITLE0=Sonny Rollins - The Night Has a Thousand Eyes
TTITLE1=John Coltrane - Giant Steps
TTITLE2=Dizzy Gillespie - Manteca
TTITLE3=Art Blackey And The Jazz Messangers - Blues March For Europe
TTITLE4=Sidney Bechet - Petite Fleur
TTITLE5=Count Basie - Jumpin' At The Woodside
TTITLE6=Hank Jones - A Froggy Day
TTITLE7=Charlie Parker - Night In Tunisia
TTITLE8=Miles Davis and His Orchestra - Moon Dreams
TTITLE9=Michael Petrucciani - Looking Up
TTITLE10=Gerry Mulligan and Astor Piazzolla - Close Your Eyes and Listen
TTITLE11=Bill Evans - The Peacocks
TTITLE12=Billie Holiday - God Bless The Child
TTITLE13=Stephane Grappelli - Tears
TTITLE14=Thelonious Monk - Round About Midnight
EXTD=
EXTT0=
EXTT1=
EXTT2=
EXTT3=
EXTT4=
EXTT5=
EXTT6=
EXTT7=
EXTT8=
EXTT9=
EXTT10=
EXTT11=
EXTT12=
EXTT13=
EXTT14=
PLAYORDER=
